<?xml version="1.0" encoding="UTF-8"?>
<!DOCTYPE svg PUBLIC "-//W3C//DTD SVG 1.1//EN" "http://www.w3.org/Graphics/SVG/1.1/DTD/svg11.dtd">
<!-- Creator: CorelDRAW -->
<svg xmlns="http://www.w3.org/2000/svg" xml:space="preserve" width="2048px" height="2048px" style="shape-rendering:geometricPrecision; text-rendering:geometricPrecision; image-rendering:optimizeQuality; fill-rule:evenodd; clip-rule:evenodd"
viewBox="0 0 2048 2048"
 xmlns:xlink="http://www.w3.org/1999/xlink">
 <defs>
  <style type="text/css">
   <![CDATA[
    .fil0 {fill:none}
    .fil1 {fill:#212121;fill-rule:nonzero}
   ]]>
  </style>
 </defs>
 <g id="Layer_x0020_1">
  <metadata id="CorelCorpID_0Corel-Layer"/>
  <g id="_388852392">
   <rect id="_388852608" class="fil0" width="2048" height="2048"/>
   <rect id="_388852464" class="fil0" x="255.999" y="255.999" width="1536" height="1536"/>
  </g>
  <path class="fil1" d="M1640.39 1065.39c20.0114,-15.7606 40.3677,-45.4146 48.0414,-77.9197 3.01418,-12.7701 3.96378,-25.6914 1.96417,-37.9016 -1.88032,-11.4862 -6.49961,-22.7457 -14.6658,-33.1158 -15.1559,-19.2437 -42.6071,-35.8004 -87.228,-46.3335 -44.3918,-10.3784 -85.4847,-5.29489 -121.832,-0.798426 -81.6178,10.0984 -144.507,17.8772 -196.168,-95.7119 -27.1677,-59.8099 -13.298,-131.043 1.12441,-205.117 19.5721,-100.527 40.3595,-207.288 -64.2249,-266.009 -9.05198,-5.07993 -17.7295,-8.84764 -25.8532,-11.2536 -7.66654,-2.27008 -14.7555,-3.40276 -21.0945,-3.35197 -0.165354,0.0011811 -1.07008,0.0543308 -2.70709,0.155906l-0.124016 0c-10.4504,0.651969 -19.3819,5.16969 -25.6193,13.865 -8.46379,11.7992 -13.3701,30.6792 -13.1587,57.4063 0.0259843,3.30591 0.193701,7.44922 0.506693,12.463 9.25631,156.817 -46.1788,227.33 -115.807,315.896 -37.1941,47.3079 -78.802,100.231 -114.899,175.4l-12.75 13.8744c-48.8363,28.4882 -95.106,49.6926 -141.35,70.8839 -46.9642,21.5209 -93.9072,43.0347 -142.547,71.9989l-16.2496 4.5 -287.749 -0.61063 0 608.203 285.245 0 8.87481 1.37599 101.401 29.5441 5.87481 2.3752c64.1563,33.6378 135.189,55.8792 205.608,70.3193 93.2387,19.1209 185.805,24.4748 260.175,24.4748 46.7079,0 121.404,-2.58307 184.362,-13.2118 39.9343,-6.74292 74.2713,-16.2354 90.8209,-29.4815 25.0382,-20.0268 41.4532,-46.728 52.2154,-71.9386 11.2004,-26.2347 16.2496,-50.6445 18.587,-65.0871l2.89607 -17.9008 16.7291 -6.7252 0.807875 -0.324803c42.854,-17.3244 69.6934,-43.089 81.6662,-73.6111 12.1063,-30.8658 9.75709,-67.9028 -5.97048,-107.178l-0.322441 -0.801969 -10.5449 -26.2264 24.7949 -13.6488c19.063,-10.4929 34.3158,-22.5201 45.6768,-35.9693 10.7043,-12.6721 18.0425,-26.8146 21.9425,-42.326 14.3386,-56.8205 -17.954,-105.586 -36.1855,-133.116 -3.61536,-5.46142 -6.74292,-10.1823 -10.1374,-16.063l-13.8095 -23.9244 21.6839 -17.0764zm110.293 -63.4205c-8.39883,35.5772 -27.6662,69.065 -49.415,93.3757 24.2126,37.1126 59.256,97.7186 39.5717,175.726 -6.30119,25.0618 -18.0709,47.8075 -35.1922,68.0764 -11.2524,13.3193 -24.7618,25.4658 -40.4929,36.3886 13.5354,45.8268 13.037,90.0969 -2.39292,129.436 -16.7032,42.5823 -50.3115,78.3024 -101.864,102.787 -3.65433,17.2288 -9.65198,39.3756 -19.5709,62.6103 -14.1697,33.1937 -36.3591,68.8099 -71.2146,96.6898 -26.2725,21.0272 -70.7457,34.402 -120.072,42.7311 -67.7304,11.4343 -146.144,14.2134 -194.862,14.2134 -77.2347,0 -173.964,-5.68347 -272.926,-25.9772 -74.602,-15.2976 -150.243,-38.9563 -219.464,-74.8134l-93.6946 -27.2988 -313.094 0 -32.0008 0 0 -32.0008 0 -672.148 0 -31.9429 32.0008 0.0673229 311.168 0.661418c49.3288,-28.7729 95.0942,-49.7481 140.88,-70.7292 41.7792,-19.1457 83.5808,-38.302 127.531,-63.3402 38.3362,-77.3481 80.1709,-130.565 117.716,-178.319 61.3146,-77.9906 110.131,-140.085 102.307,-272.644 -0.292914,-4.69134 -0.46063,-9.94371 -0.506693,-15.7134 -0.328347,-41.3481 8.95276,-72.9107 24.9106,-95.1568 18.1595,-25.3158 43.8473,-38.4603 73.7434,-40.3583l0 -0.00826772c1.30158,-0.0814961 3.37441,-0.134646 6.20552,-0.155906 12.8599,-0.103937 26.1579,1.87441 39.5953,5.85355 12.9567,3.83859 26.087,9.44883 39.1028,16.7528 144.871,81.3402 119.558,211.345 95.7249,333.76 -12.4536,63.9603 -24.4288,125.467 -5.62441,166.866 32.1071,70.5934 74.7839,65.3138 130.168,58.4622 41.5359,-5.1378 88.4953,-10.9476 144.082,2.04803 60.306,14.2358 99.3969,39.1406 122.98,69.0839 15.1984,19.3004 23.8382,40.5272 27.4146,62.367 3.45827,21.1158 2.07402,42.3733 -2.71299,62.6504z"/>
 </g>
</svg>
